<svg width="278.52749023437497px" height="124.337451171875px" xmlns="http://www.w3.org/2000/svg" viewBox="110.73625488281252 12.831274414062499 278.52749023437497 124.337451171875" style="background-color: rgb(255, 255, 255); background-position: initial initial; background-repeat: initial initial;" preserveAspectRatio="xMidYMid"><defs><linearGradient id="editing-outline-gradient" x1="0.046009500260453196" x2="0.9539904997395467" y1="-0.3910065241883678" y2="1.3910065241883678"><stop offset="0" stop-color="rgba(0%,0%,0%,0.958)"></stop><stop offset="1" stop-color="#000000"></stop></linearGradient><filter id="editing-outline" x="-100%" y="-100%" width="300%" height="300%"><feMorphology in="SourceGraphic" operator="dilate" radius="2" result="outline"></feMorphology><feComposite operator="out" in="outline" in2="SourceAlpha"></feComposite></filter></defs><g filter="url(#editing-outline)"><g transform="translate(157.90500354766846, 97.45437431335449)"><path d="M19.58 0L15.55 0L15.55-40.96L2.88-40.96L3.20-44.80L32.19-44.80L31.87-40.96L19.58-40.96L19.58 0ZM44.42-18.56L63.74-18.56L63.74-14.85L44.42-14.85L44.42-18.56ZM81.54 0L77.18 0L77.18-44.80L81.54-44.80L81.54-23.42L96.96-44.80L101.95-44.80L86.27-23.74L105.02 0L100.03 0L81.54-23.42L81.54 0ZM114.18-44.80L128-18.62L141.25-44.80L145.73-44.80L130.05-15.04L130.05 0L126.02 0L126.02-15.10L109.50-44.80L114.18-44.80ZM177.79-31.94L177.47-40.06L177.47-40.06Q174.21-41.34 170.62-41.34L170.62-41.34L170.62-41.34Q163.39-41.34 158.94-36.03L158.94-36.03L158.94-36.03Q154.50-30.72 154.50-20.48L154.50-20.48L154.50-20.48Q154.50-10.24 159.17-6.14L159.17-6.14L159.17-6.14Q162.37-3.26 168.06-3.26L168.06-3.26L168.06-3.26Q171.71-3.26 175.39-4.10L175.39-4.10L175.39-4.10Q179.07-4.93 180.42-5.70L180.42-5.70L181.31-2.56L181.31-2.56Q178.50-0.70 171.46 0L171.46 0L171.46 0Q169.41 0.26 167.14 0.26L167.14 0.26L167.14 0.26Q164.86 0.26 161.79-0.48L161.79-0.48L161.79-0.48Q158.72-1.22 156.10-3.46L156.10-3.46L156.10-3.46Q150.14-8.51 150.14-20.29L150.14-20.29L150.14-20.29Q150.14-32.06 155.74-38.50L155.74-38.50L155.74-38.50Q161.34-44.93 170.30-44.93L170.30-44.93L170.30-44.93Q175.30-44.93 178.88-42.94L178.88-42.94L178.88-42.94Q180.22-42.24 180.99-41.41L180.99-41.41L180.99-32.13L177.79-31.94Z" fill="url(#editing-outline-gradient)"></path></g></g><style>text {
  font-size: 64px;
  font-family: Arial Black;
  dominant-baseline: central;
  text-anchor: middle;
}</style></svg>