<svg height="512" viewBox="0 0 128 128" width="512" xmlns="http://www.w3.org/2000/svg"><g><g><rect fill="#36607d" height="60.036" rx="6.296" width="60.036" x="33.982" y="52.063"/><circle cx="63.994" cy="82.747" fill="#4980fa" r="21.333"/><path d="m64 15.9a19.586 19.586 0 0 0 -19.585 19.585v16.578h7.385v-16.581a12.2 12.2 0 0 1 24.4 0v16.581h7.386v-16.578a19.586 19.586 0 0 0 -19.586-19.585z" fill="#4980fa"/><circle cx="63.994" cy="79.494" fill="#f3eee8" r="9.445"/><path d="m63.994 88.938a13.349 13.349 0 0 0 -13.073 10.662 21.31 21.31 0 0 0 26.146 0 13.348 13.348 0 0 0 -13.073-10.662z" fill="#de5b5b"/></g><g fill="#001d9b"><path d="m87.723 50.313h-2.388v-14.828a21.34 21.34 0 0 0 -31.783-18.6 1.75 1.75 0 1 0 1.717 3.05 17.84 17.84 0 0 1 26.566 15.55v14.828h-28.284v-14.831a10.449 10.449 0 0 1 20.9 0v8.685a1.75 1.75 0 0 0 3.5 0v-8.685a13.949 13.949 0 0 0 -27.9 0v14.831h-3.886v-14.828a17.749 17.749 0 0 1 1.4-6.942 1.749 1.749 0 1 0 -3.222-1.363 21.182 21.182 0 0 0 -1.678 8.305v14.828h-2.388a8.056 8.056 0 0 0 -8.046 8.046v47.441a8.056 8.056 0 0 0 8.046 8.046 1.75 1.75 0 1 0 0-3.5 4.551 4.551 0 0 1 -4.546-4.546v-47.441a4.552 4.552 0 0 1 4.546-4.546h47.446a4.552 4.552 0 0 1 4.546 4.546v47.441a4.551 4.551 0 0 1 -4.546 4.546h-39.39a1.75 1.75 0 0 0 0 3.5h39.39a8.056 8.056 0 0 0 8.046-8.046v-47.441a8.056 8.056 0 0 0 -8.046-8.046z"/><path d="m49.021 24.615a1.747 1.747 0 0 0 1.338-.615q.313-.372.648-.727a1.75 1.75 0 1 0 -2.551-2.4q-.4.422-.77.864a1.75 1.75 0 0 0 1.335 2.88z"/><path d="m63.994 63.164a19.389 19.389 0 0 1 12 4.106 1.75 1.75 0 0 0 2.147-2.765 22.868 22.868 0 0 0 -14.147-4.841 23.07 23.07 0 0 0 -14.242 41.229 1.756 1.756 0 0 0 .22.172 23.011 23.011 0 0 0 28.045 0 1.822 1.822 0 0 0 .219-.172 23.088 23.088 0 0 0 8.236-23.419 1.75 1.75 0 0 0 -3.409.8 19.579 19.579 0 0 1 -5.138 18.218 15.168 15.168 0 0 0 -7.5-7.847 11.182 11.182 0 1 0 -17.2-6.079 1.749 1.749 0 0 0 3.365-.959 7.7 7.7 0 1 1 7.4 5.584 15.149 15.149 0 0 0 -13.93 9.3 19.567 19.567 0 0 1 13.93-33.325zm0 27.524a11.632 11.632 0 0 1 11.081 8.189 19.5 19.5 0 0 1 -22.162 0 11.632 11.632 0 0 1 11.081-8.189z"/><path d="m82.184 73.342a1.751 1.751 0 0 0 1.49-2.665q-.378-.615-.792-1.2a1.749 1.749 0 1 0 -2.863 2.011c.233.334.458.674.67 1.022a1.754 1.754 0 0 0 1.495.832z"/></g></g></svg>