<?xml version="1.0" encoding="iso-8859-1"?>
<!-- Generator: Adobe Illustrator 19.0.0, SVG Export Plug-In . SVG Version: 6.00 Build 0)  -->
<svg version="1.1" id="Capa_1" xmlns="http://www.w3.org/2000/svg" xmlns:xlink="http://www.w3.org/1999/xlink" x="0px" y="0px"
	 viewBox="0 0 512 512" style="enable-background:new 0 0 512 512;" xml:space="preserve">
<circle style="fill:#90CAF9;" cx="256" cy="256" r="176"/>
<circle style="fill:#2196F3;" cx="256" cy="256" r="64"/>
<path d="M256,448c-106.039,0-192-85.961-192-192S149.961,64,256,64s192,85.961,192,192C447.894,361.995,361.995,447.894,256,448z
	 M256,96c-88.366,0-160,71.634-160,160s71.634,160,160,160s160-71.634,160-160C415.894,167.678,344.322,96.106,256,96z"/>
<path d="M256,352c-53.019,0-96-42.981-96-96s42.981-96,96-96s96,42.981,96,96S309.019,352,256,352z M256,192
	c-35.346,0-64,28.654-64,64s28.654,64,64,64s64-28.654,64-64S291.346,192,256,192z"/>
<path d="M496,272h-64c-8.837,0-16-7.163-16-16c0-8.837,7.163-16,16-16h64c8.837,0,16,7.163,16,16C512,264.837,504.837,272,496,272z"
	/>
<path d="M80,272H16c-8.837,0-16-7.163-16-16c0-8.837,7.163-16,16-16h64c8.837,0,16,7.163,16,16C96,264.837,88.837,272,80,272z"/>
<path d="M256,96c-8.837,0-16-7.163-16-16V16c0-8.837,7.163-16,16-16c8.837,0,16,7.163,16,16v64C272,88.837,264.837,96,256,96z"/>
<path d="M256,512c-8.837,0-16-7.163-16-16v-64c0-8.837,7.163-16,16-16c8.837,0,16,7.163,16,16v64C272,504.837,264.837,512,256,512z"
	/>
<g>
</g>
<g>
</g>
<g>
</g>
<g>
</g>
<g>
</g>
<g>
</g>
<g>
</g>
<g>
</g>
<g>
</g>
<g>
</g>
<g>
</g>
<g>
</g>
<g>
</g>
<g>
</g>
<g>
</g>
</svg>
